# xmcd
# Track frame offsets:
# 150
# 13092
# 24430
# 36642
# 50055
# 65225
# 77490
# 87482
# 102937
# 116477
# 126740
#
# Disc length: 1852 seconds
# Revision: 0
# Processed by: cddbd v1.4PL0 Copyright (c) Steve Scherf et al.
# Submitted via: VisiTrax 2.9.5.180 - For more info visit www.synapsa.com
#
DISCID=9e073a0b
DTITLE=Donny Moore - Leaning on the jukebox
DYEAR=1900
DGENRE=
TTITLE0=Leaning on the jukebox
TTITLE1=The worst kind of hurt
TTITLE2=She's the better half of me
TTITLE3=As long as it takes
TTITLE4=Would I
TTITLE5=My heart of gold has turned to stone
TTITLE6=One more taste of Texas
TTITLE7=Her picture comes off my wall today
TTITLE8=Country gold
TTITLE9=Am I kin to George JOnes
TTITLE10=My memory just ain't got the picture yet
EXTD=
EXTT0=
EXTT1=
EXTT2=
EXTT3=
EXTT4=
EXTT5=
EXTT6=
EXTT7=
EXTT8=
EXTT9=
EXTT10=
PLAYORDER=
